<?xml version="1.0" encoding="UTF-8"?>
<svg width="228px" height="426px" viewBox="0 0 228 426" version="1.1" xmlns="http://www.w3.org/2000/svg" xmlns:xlink="http://www.w3.org/1999/xlink">
    <!-- Generator: Sketch 47.1 (45422) - http://www.bohemiancoding.com/sketch -->
    <title>Egg cats</title>
    <desc>Created with Sketch.</desc>
    <defs></defs>
    <g id="Symbols" stroke="none" stroke-width="1" fill="none" fill-rule="evenodd">
        <g id="Egg-cats">
            <g>
                <path d="M56.2519845,191.349609 C48.7864688,200.186849 43.0846354,207.736979 39.1464844,214 C32.3135692,224.866696 39.3472554,250.028624 36.3486328,256.462891 C27.9599609,274.462804 27.2093504,275.559045 34,287.028495 C40.7906496,298.497944 44.1859744,306.478194 40.7906496,316.867488 C37.3953248,327.256782 40.9338555,344.039489 48.1761543,347.631177 C50.7158014,348.890669 51.8780567,346.553586 56.2519845,346.143373 C59.4192952,345.846323 63.5093234,348.113621 66.8724724,347.631177 C72.1092851,346.879956 76.1025173,343.079494 76.1025173,340.421315 C76.1025173,333.69856 88.7854141,301.270879 88.7854141,295.959925 C106.348325,302.376368 137.741004,295.959925 142.54758,287.028495 C151.046908,293.101776 156.248829,301.614247 162.794682,308.838873 C169.340536,316.0635 182.892459,331.420791 191.783461,328.956472 C194.517463,328.198689 193.457885,325.769072 195.597388,324.228203 C197.706652,322.709112 200.690801,323.245645 202.811535,322.396085 C205.535186,321.304999 207,317.184631 207,316.867488 C207,316.052927 181.284148,278.997577 179.12994,274.202518 C176.975733,269.407459 175.17648,250.519717 181.284148,238.462977 C185.355926,230.42515 188.1515,222.270824 189.670869,214" id="Path-2" stroke="#000000" stroke-width="2" fill="#FFFFFF"></path>
                <path d="M91.8853859,70.5013866 L98.9216959,52.2122959 C102.534808,31.2039848 116.104237,0.657294822 121.000781,0.0390131612 C125.897326,-0.5792685 136.022715,6.20106658 136.022715,16.841048 C136.022715,27.4810294 126.114176,55.8481612 129.789639,62.7692245 C132.158647,67.2301751 149.133591,82.8670052 153.659071,103.07 C156.245394,114.616064 159.122787,125.476837 161.31664,131.286598 C167.488632,147.631266 181.007272,146.740179 189.856604,155.742176 C192.23203,158.158582 193.911502,162.234356 194.963343,167.185037 C206.918893,162.054577 217.931112,158.612104 228,156.857621 C224.754265,160.262206 214.113137,166.356276 196.076617,175.139831 C196.164267,176.252429 196.228718,177.383945 196.270496,178.528318 C208.386592,178.200806 216.638212,178.282978 221.025356,178.774839 C212.737665,181.373799 204.465457,183.945093 196.208734,186.48872 C196.167275,187.313145 196.115184,188.137089 196.052645,188.95844 C213.997093,192.862654 224.646211,195.959884 228,198.250129 C213.615085,198.490322 202.582218,198.430379 194.901401,198.070301 C194.786252,198.708912 194.664416,199.340252 194.536002,199.963129 C200.860318,202.735853 206.855161,205.48089 212.52053,208.198241 C204.761114,207.23726 198.320652,206.280958 193.199147,205.329336 C192.714777,206.955455 192.177773,208.480114 191.590679,209.874121 C193.974083,212.119449 195.800381,214.113988 197.069575,215.857737 C194.944698,214.680162 192.613566,213.555507 190.076179,212.483772 C188.134789,214.826164 183.019895,219.884166 174.490153,222.530437 C172.015991,223.298023 157.958271,222.530437 150.618277,222.530437 C142.282668,222.530437 134.361213,235.231742 122.846759,238.110905 C111.332305,240.990067 85.4348637,236.862229 71.7470187,225.935601 C58.3640616,215.252355 53.4811709,202.794858 56.3298677,190.528594 C56.3947662,190.249146 60.0132712,161.747352 58.1715694,156.857621 C56.3298677,151.967889 44.3908758,139.592451 40.2627762,133.152979 C36.1346766,126.713506 34.3088569,115.39353 32.8684812,112.915212 C31.4281055,110.436895 18.9173614,75.1740771 11.7997798,62.7692245 C4.68219812,50.364372 -1.51056216,28.7464305 0.326863652,24.6745382 C2.16428947,20.602646 18.7487678,29.8976341 20.5715333,30.0672001 C22.3942988,30.2367662 46.46531,41.4661915 53.7869144,50.364372 C59.3493893,57.1246261 71.0738756,74.7008364 79.457295,82.1507648 C78.9677998,77.4804671 79.3977033,73.3585616 80.7470057,69.7850483 L84.2578664,85.3273239 C84.7864934,85.5053571 85.2800379,85.5879917 85.7334684,85.5641395 L86.1080163,75.1458216 L88.33637,79.7261469 L89.7510995,76.0489189 L86.9296753,64.3081685 L91.8853859,70.5013866 Z" id="Combined-Shape" stroke="#000000" stroke-width="2" fill="#FFFFFF"></path>
                <path d="M161.036909,137.772258 C163.836378,136.733956 159.837306,126.461884 157.861044,118.648157 C155.884782,110.834431 153.724716,110.368697 150.925247,111.406999 C148.125778,112.4453 146.384958,119.086656 150.203345,127.762438 C154.021732,136.438219 158.23744,138.810559 161.036909,137.772258 Z" id="Oval" stroke="#000000" stroke-width="2"></path>
                <path d="M159.117561,137 C161.44575,137 161.477639,136.527633 159.961496,130.664974 C158.445353,124.802315 155.983401,122 153.655212,122 C151.327022,122 150.28594,127.947685 151.530377,130.664974 C152.774814,133.382263 156.789372,137 159.117561,137 Z" id="Oval-6" fill="#000000"></path>
                <path d="M90.2427673,367 C85.1607824,373.290671 66.9250057,393.047654 63.2373121,399.456864 C59.5496184,405.866073 49.2139821,421.726978 52.7119945,424.846746 C56.210007,427.966514 71.2076456,424.593399 78.7623724,416.701297 C86.3170992,408.809196 108.254188,381.589522 109,380.385544" id="Path-4" stroke="#000000" stroke-width="2" fill="#FFFFFF"></path>
                <path d="M168.467851,365 C173.559166,371.265896 193.53499,393.417627 198.777448,399.711883 C204.019906,406.006139 209.969931,418.959864 207.369423,422.383939 C204.768915,425.808014 190.109292,423.847679 182.293142,415.960614 C174.476992,408.073549 152.747181,380.987122 152,379.787885" id="Path-4-Copy" stroke="#000000" stroke-width="2" fill="#FFFFFF"></path>
                <path d="M77.5493176,320.709791 C73.5260098,308.765966 72.1570256,285.401481 77.5493176,281.299237 C82.1214937,283.080368 87.5961949,288.354313 91.0854937,295.767043 C96.3961396,307.049077 97.5248739,311.315532 106.277743,312.520271 C111.609538,313.254135 120.637529,309.811515 128.119877,309.77316 C147.885521,309.671842 147.56503,312.775869 152.561278,309.77316 C157.557526,306.770452 164.903229,282.168503 171.445876,279 C176.375102,283.605382 177.487681,309.153737 177.487681,316.3105 C177.487681,323.467263 179.489836,332.737896 175.578139,344.640505 C173.533354,350.862428 169.924904,366.499067 160.256718,374.748188 C151.429557,382.279727 137.926383,388.127973 129.502984,387.997871 C121.079586,387.867769 105.673467,380.986498 93.6786682,371.800744 C86.880347,366.594511 81.1325448,352.082488 80.1997662,347.517717 C77.9932839,336.719779 79.2992229,325.904661 77.5493176,320.709791 Z" id="Path-3" stroke="#000000" stroke-width="2" fill="#FFFFFF"></path>
                <path d="M111.5,344 C116.19442,344 120,339.970563 120,335 C120,330.029437 116.19442,326 111.5,326 C106.80558,326 103,330.029437 103,335 C103,339.970563 106.80558,344 111.5,344 Z" id="Oval" stroke="#000000" stroke-width="2"></path>
                <path d="M147.5,344 C152.19442,344 156,339.970563 156,335 C156,330.029437 152.19442,326 147.5,326 C142.80558,326 139,330.029437 139,335 C139,339.970563 142.80558,344 147.5,344 Z" id="Oval-Copy" stroke="#000000" stroke-width="2"></path>
                <path d="M112,342 C114.209139,342 116,339.985281 116,337.5 C116,335.014719 114.209139,333 112,333 C109.790861,333 108,335.014719 108,337.5 C108,339.985281 109.790861,342 112,342 Z" id="Oval-2" fill="#000000"></path>
                <path d="M148,342 C150.209139,342 152,339.985281 152,337.5 C152,335.014719 150.209139,333 148,333 C145.790861,333 144,335.014719 144,337.5 C144,339.985281 145.790861,342 148,342 Z" id="Oval-2-Copy" fill="#000000"></path>
                <path d="M131.446762,375 C137.570837,375 145,371.305197 145,365.988336 C145,360.671476 137.570837,358 131.446762,358 C125.322687,358 117,360.671476 117,365.988336 C117,371.305197 125.322687,375 131.446762,375 Z" id="Oval-3" stroke="#000000" stroke-width="2"></path>
                <path d="M131,374 C137.075132,374 142,372.209139 142,370 C142,367.790861 137.075132,366 131,366 C124.924868,366 120,367.790861 120,370 C120,372.209139 124.924868,374 131,374 Z" id="Oval-4" fill="#000000"></path>
                <path d="M119,361.8402 C120.046423,363.726285 121.046423,364.779551 122,365 L120.922688,360" id="Path-5" stroke="#000000" stroke-width="2" fill="#D8D8D8"></path>
                <path d="M142,361.8402 C140.953577,363.726285 139.953577,364.779551 139,365 L140.077312,360" id="Path-5-Copy" stroke="#000000" stroke-width="2" fill="#D8D8D8"></path>
                <path d="M131.5,358 L131.5,352" id="Path-6" stroke="#000000" stroke-width="2" fill="#D8D8D8"></path>
                <path d="M131,352 C132.104569,352 133,351.552285 133,351 C133,350.447715 132.104569,350 131,350 C129.895431,350 129,350.447715 129,351 C129,351.552285 129.895431,352 131,352 Z" id="Oval-5" fill="#000000"></path>
                <path d="M152,356 L164,348" id="Line" stroke="#000000" stroke-width="2" fill="#D8D8D8" stroke-linecap="square"></path>
                <path d="M152,359 L165,359" id="Line-2" stroke="#000000" stroke-width="2" fill="#D8D8D8" stroke-linecap="square"></path>
                <path d="M151,363 L160,368" id="Line-3" stroke="#000000" stroke-width="2" fill="#D8D8D8" stroke-linecap="square"></path>
                <path d="M107,360 L93,360" id="Line-4" stroke="#000000" stroke-width="2" fill="#D8D8D8" stroke-linecap="square"></path>
                <path d="M107,357 L97,350" id="Line-5" stroke="#000000" stroke-width="2" fill="#D8D8D8" stroke-linecap="square"></path>
                <path d="M108,366 L100,372" id="Line-6" stroke="#000000" stroke-width="2" fill="#D8D8D8" stroke-linecap="square"></path>
                <path d="M76.0671866,121.35088 C79.2474353,127.832982 84,138.837366 84,143.78148 C84,148.725594 81.7000665,151.216726 77.3980738,150.985215 C73.0960812,150.753703 67.3992347,149.893556 63.0265923,145.54773 C58.65395,141.201904 56.5516446,132.660259 56.0666441,127.521918 C55.5816436,122.383577 57.8001676,114.356818 60.8870108,113.242044 C63.973854,112.127271 72.8869379,114.868779 76.0671866,121.35088 Z" id="Line-2" stroke="#000000" stroke-width="2" stroke-linecap="square"></path>
                <path d="M80.3149024,150.381852 C85.2813974,148.422724 84.7699835,141.110607 81.4906359,133.93107 C78.2112882,126.751532 71.526712,122.519555 66.5602171,124.478683 C61.5937221,126.437811 60.6385303,135.26987 63.917878,142.449407 C67.1972256,149.628944 75.3484074,152.34098 80.3149024,150.381852 Z" id="Oval-2" fill="#000000"></path>
                <path d="M124,178 C129.384251,179.079588 133.192971,180.041361 135.42616,180.885318 C138.775943,182.151254 138.28104,185.79328 140.795272,185.923302 C142.02159,185.98672 144.2832,185.389934 147.580104,184.132944 C147.467994,186.280148 147.467994,187.683484 147.580104,188.342951 C148.046751,191.087929 149.985344,196.579914 149.985344,201.53908 C149.985344,203.923302 149.746308,207.700164 148.808702,208.132213 C145.135798,209.82469 137.758739,216.554054 136.675072,220 C139.221338,219.479547 143.106756,218.767714 146.54605,217.140248 C149.985344,215.512783 152.260298,212.739996 153,209.795106 C151.660587,209.133552 150.263488,208.579255 148.808702,208.132213" id="Line-3" stroke="#000000" stroke-width="2" stroke-linecap="square"></path>
                <path d="M148,184 L152,176" id="Line-7" stroke="#000000" stroke-width="2" fill="#D8D8D8" stroke-linecap="square"></path>
                <path d="M108,216.454625 C101.705503,222.956519 95.6522211,227.804978 89.8401558,231 C92.2581759,227.704627 95.3969144,221.458705 99.2563713,212.262236 C98.7897939,213.37315 91.7025651,214.770613 77.9946848,216.454625 C85.1856857,213.033291 90.4083381,209.839705 93.6626421,206.87387 C92.8231493,205.430077 83.2441683,204.556476 64.925699,204.253066 C68.5552403,201.794472 76.8600593,200.047682 89.8401558,199.012695 C81.1630742,194.822857 71.8830223,191.190794 62,188.116506 C67.2612724,187.531393 78.9955109,189.169079 97.1992224,191.801325 C88.0723802,187.710896 67.3231724,179.649589 68.1993872,178 C74.8169998,178.444572 85.6852594,180.782754 100.804166,185.014547" id="Line-4" stroke="#000000" stroke-width="2" stroke-linecap="square"></path>
                <path d="M17,46 C27.253829,49.2561546 34.753829,52.8881708 39.5,56.8960486 C44.246171,60.9039263 51.746171,69.9385768 62,84" id="Line-8" stroke="#000000" stroke-width="2" fill="#D8D8D8" stroke-linecap="square"></path>
            </g>
        </g>
    </g>
</svg>