<?xml version="1.0" encoding="UTF-8"?>
<svg width="206px" height="428px" viewBox="0 0 206 428" version="1.1" xmlns="http://www.w3.org/2000/svg" xmlns:xlink="http://www.w3.org/1999/xlink">
    <!-- Generator: Sketch 47.1 (45422) - http://www.bohemiancoding.com/sketch -->
    <title>Group</title>
    <desc>Created with Sketch.</desc>
    <defs></defs>
    <g id="Page-1" stroke="none" stroke-width="1" fill="none" fill-rule="evenodd">
        <g id="Artboard-Copy" transform="translate(-778.000000, -376.000000)">
            <g id="egg-button" transform="translate(455.000000, 377.000000)">
                <g id="Group" transform="translate(325.000000, 0.000000)">
                    <path d="M49.13515,236.309036 C11.9027106,281.055518 79.904275,379.55513 80.7246937,383.63355 C81.5451125,387.71197 83.6871208,397.499647 84.471777,402.02474 C85.6599346,408.876818 85.0271107,417.761994 86.7762953,420.203835 C89.6251112,425.074302 93.0654921,425.860005 94.3063191,424.066337 C95.6967306,425.807276 97.7249641,424.519775 100.39102,420.203835 C100.702076,422.778836 102.614003,424.066337 106.126802,424.066337 C113.133077,428.69163 108.344435,335.596717 112.283914,319.655138 C119.804966,337.427237 118.032867,428.279824 128.836857,424.066337 C129.662839,426.188496 135.74985,426.617919 137.088163,424.066337 C137.944609,426.82162 142.686038,426.461198 143.50937,424.066337 C143.660296,424.443937 145.655223,403.950039 146.291066,402.02474 C148.861626,394.241224 151.663443,394.226993 154.95611,381.289032 C159.063237,365.15079 199.455738,315.045029 202.639365,285.217276 C206.254433,251.347304 181.72174,228.702499 172.364375,227" id="Path-3" stroke="#000000" stroke-width="2" fill="#FFFFFF"></path>
                    <path d="M133.220608,75.586818 C137.502562,67.5399973 181.705455,24.6000461 190.979351,10.4760901 C200.524174,-4.06048327 205.30001,21.7145237 195.936634,31.4537135 C194.97951,52.0899297 185.835241,78.505996 182.368664,91.0029691 C178.902088,103.499942 173.533002,101.376832 171.484749,106.072039 C169.436495,110.767246 169.685924,123.951946 169.685924,130.114958 C169.685924,136.27797 161.68854,152.756879 169.685924,159.388528 C177.683308,166.020176 175.471703,215.711364 169.685924,227.5884 C163.900145,239.465437 140.486081,247.405731 124.990171,254.213241 C115.452801,258.403104 101.004366,257.782721 88.3857049,252.929157 C80.5021063,249.896858 72.889015,243.0394 69.0006557,241.363562 C65.0729446,239.670764 55.0448612,240.34665 46.5205565,236.426758 C40.9298017,239.561108 36.847379,241.354187 34.2732883,241.805995 C36.6861203,240.091439 39.5195195,237.590302 42.7734857,234.302585 C41.4544707,233.387942 40.2096381,232.315488 39.0744685,231.052727 C31.6268905,231.742206 24.8597794,232.166917 18.7731351,232.32686 C22.3319871,230.958451 27.84559,228.633403 35.313944,225.351714 C35.0093986,224.747908 34.7138465,224.122645 34.4273491,223.478648 C16.4559312,225.060401 5.31270653,224.859092 0.997675065,222.874723 C3.01358722,221.711022 13.2697135,219.480587 31.766054,216.183418 C31.4125087,215.006235 31.0823297,213.805745 30.7757637,212.59285 C21.1670724,209.869331 14.1821959,207.516222 9.8211325,205.533517 C11.9700425,205.120966 18.5443933,205.617769 29.5441851,207.023926 C29.1201143,204.8063 28.7745987,202.602228 28.5091005,200.476319 C19.8761592,194.272556 14.8759708,190.224982 13.5085352,188.333598 C15.8708334,188.23138 20.6723649,189.972668 27.9131295,193.557462 C27.7879877,190.636523 27.8640904,188.090957 28.1470901,186.170563 C30.3729443,171.066246 46.5549638,156.360566 51.4907271,147.570439 C56.4264905,138.780312 55.6762466,129.117754 60.121955,112.831408 C64.5676634,96.5450622 68.4382174,94.3669341 71.8578426,80.7381597 C75.2774677,67.1093853 69.0006557,58.7053674 61.299652,30.2580518 C58.0119904,18.113512 59.8285089,5.93807765 61.299652,1.03458766 C62.7707951,-3.86890232 71.7790524,10.1311971 73.4170195,12.3074075 C76.3808251,16.245133 91.2438699,38.1826261 99.3517855,46.7300841 C103.435936,51.0356423 107.371914,61.2700351 110.988191,70.3677897 C111.710811,59.9572974 112.496172,52.8754975 113.344274,49.1223898 C113.921234,53.2010525 114.482631,63.4936336 115.028466,80.0001334 C115.571764,81.1641426 116.104871,82.2260273 116.62705,83.1554726 C117.341891,77.416337 117.972769,73.4915626 118.519685,71.3811494 C119.251505,74.5669085 119.673641,79.7693333 119.786092,86.988424 C119.917297,87.0533166 120.04754,87.1030652 120.176805,87.1370213 C120.636785,82.6903478 121.20668,79.3204687 121.886489,77.027384 C122.196767,79.5435005 122.563872,82.8306167 122.987802,86.8887325 C123.305543,86.8082951 123.619442,86.712435 123.929051,86.6019153 C124.723664,79.5833558 125.335603,74.5097672 125.764869,71.3811494 C126.230551,73.8081321 126.520372,78.4143625 126.63433,85.1998404 C126.967956,84.9692213 127.293491,84.7209988 127.610168,84.4564755 C129.894093,65.0875764 131.673839,54.2790784 132.949407,52.0309817 C132.689422,56.8011856 132.779822,64.653131 133.220608,75.586818 Z" id="Combined-Shape" stroke="#000000" stroke-width="2" fill="#FFFFFF"></path>
                    <path d="M109.906256,193.23288 C126.448676,186.237982 140.479924,181.160356 152,178 C149.04463,181.892382 136.610246,188.845535 114.696848,198.859459 C129.25916,197.03859 138.909889,196.200875 143.649033,196.346312 C135.094348,200.014476 126.556061,203.644037 118.034171,207.234995 C136.882288,209.724929 148.026585,211.990412 151.46706,214.031442 C135.161435,215.735559 123.667042,216.562087 116.983881,216.511028 C124.634431,219.187089 131.807549,221.862439 138.503235,224.537079 C126.142438,224.00748 117.456628,223.172682 112.445805,222.032685 C116.652359,230.419189 119.970681,236.07496 122.400771,239 C116.953251,236.43238 111.152994,232.321918 105,226.668614" id="Line-4" stroke="#000000" stroke-width="2" stroke-linecap="square"></path>
                    <path d="M113.506777,164 C117.652656,164 122,160.963671 122,154.504726 C122,148.045781 118.167291,141.034504 113.506777,141.000119 C108.846263,140.965733 106,148.405745 106,154.504726 C106,160.603708 109.360899,164 113.506777,164 Z" id="Oval-3" stroke="#000000" transform="translate(114.000000, 152.500000) rotate(13.000000) translate(-114.000000, -152.500000) "></path>
                    <path d="M112.710475,166 C115.480861,166 118,161.814876 118,158.316664 C118,154.818452 115.480909,150 112.710475,150 C109.940041,150 106.740868,152.416704 106.154929,155.830843 C105.670093,158.655875 105.943676,166 112.710475,166 Z" id="Oval-4" fill="#000000"></path>
                    <path d="M54.6357288,152 C57.2942358,152 61.8386255,148.755317 63.3936854,144.184273 C64.9487452,139.613229 66.0521923,135 63.3936854,135 C60.7351784,135 60.9694504,139.059779 58.8579313,143.202431 C57.8366906,145.206033 52.1146617,152 54.6357288,152 Z" id="Oval-5" stroke="#000000"></path>
                    <path d="M55.4324879,152 C57.1171,152 59.9967366,150.282226 60.982129,147.862262 C61.9675215,145.442298 62.6667411,143 60.982129,143 C59.2975169,143 59.1149191,144.857287 57.776916,147.050456 C57.1297879,148.111186 53.834967,152 55.4324879,152 Z" id="Oval-5-Copy" stroke="#000000" fill="#000000"></path>
                    <path d="M67,211 C64.216035,210.70077 62.2526473,210.25909 61.1098367,209.674959 C59.9670262,209.090829 58.5970806,207.199176 57,204" id="Line-10" stroke="#000000" stroke-linecap="square"></path>
                    <path d="M67,210 C69.0491086,208.952224 70.3869896,208.101198 71.0136428,207.446921 C71.640296,206.792645 72.3024151,205.643671 73,204" id="Line-11" stroke="#000000" stroke-linecap="square"></path>
                    <path d="M66.973813,239 C70.3431538,239 73.0997026,237.209451 72.9972325,235.89417 C72.8947623,234.578888 70.8438372,232 68.1212251,232 C65.398613,232 61.9542968,234.225833 62.0004591,235.5 C62.0466214,236.774167 63.6044723,239 66.973813,239 Z" id="Oval-7" stroke="#000000"></path>
                    <path d="M67.460424,231 C67.513192,226.406753 67.513192,222.906753 67.460424,220.5 C67.4076561,218.093247 67.2541814,214.593247 67,210" id="Line-9" stroke="#000000" stroke-linecap="square"></path>
                </g>
            </g>
        </g>
    </g>
</svg>