<?xml version="1.0" encoding="UTF-8"?>
<svg width="286px" height="295px" viewBox="0 0 286 295" version="1.1" xmlns="http://www.w3.org/2000/svg" xmlns:xlink="http://www.w3.org/1999/xlink">
    <!-- Generator: Sketch 47.1 (45422) - http://www.bohemiancoding.com/sketch -->
    <title>Group 2</title>
    <desc>Created with Sketch.</desc>
    <defs></defs>
    <g id="Page-1" stroke="none" stroke-width="1" fill="none" fill-rule="evenodd">
        <g id="Artboard-Copy" transform="translate(-121.000000, -519.000000)">
            <g id="Eggcelent" transform="translate(-332.000000, 521.000000)">
                <g id="Group-2" transform="translate(455.000000, 0.000000)">
                    <path d="M254.136804,213.220015 C254.089418,212.947128 254.038937,212.67412 253.985261,212.400973 C250.691394,195.639139 235.403365,181.787703 224.684173,176.307064 C213.96498,170.826425 209.721273,155.143439 206.575263,147.296497 C205.631615,135.025191 203.648328,103.813339 184.414626,92.6582426 C182.644996,83.7853837 188.122703,79.6178982 184.414626,25.716768 C184.022758,20.0205048 188.134313,-6.38355209 179.681678,1.43569405 C174.399106,6.3224217 164.346427,39.9457233 157.326738,52.7907025 C145.90673,73.6876052 144.585831,77.4506995 144.417569,97.7426811 C144.353576,105.460151 143.06622,95.8857039 140.555502,69.0193398 L140.555502,105.932893 L132.425729,82.7633586 L133.917452,109.037109 L125.399846,90.1790729 L127.811994,110.274748 L116.476604,87.6384104 L122.025472,112.684641 L109.350861,82.7633586 C112.175354,92.7495736 113.587601,101.920037 113.587601,110.274748 C105.141989,105.473643 95.7287308,96.3470979 94.0349636,92.6582426 C86.7674839,76.8303994 52.3913604,51.0113047 25.2105779,39.9457233 C7.09005619,32.568669 -1.26214599,39.6143889 0.153971336,61.0828831 C7.70129837,81.2944344 15.1377206,98.4950203 22.463238,112.684641 C33.4515142,133.969072 52.4440003,154.257632 71.6451888,172.3365 C72.0330212,187.711245 73.9737316,189.870496 78.7941557,197.13676 C74.9297656,205.705269 78.0362956,249.11915 87.890026,262.29261 C97.7437563,275.466069 122.305702,286.569792 137.983112,289.582936 C153.660522,292.596081 192.000195,291.100017 194.96661,282.220153 C197.933025,273.340288 203.281397,276.385347 208.681634,275.466069 C212.675827,274.786141 214.990302,280.192697 220.452077,279.115936 C225.883371,278.045185 230.704442,275.577338 234.973071,271.779318 C240.182383,275.405627 243.142285,277.145519 243.852778,276.998995 C243.107725,275.638387 240.928995,273.139646 237.316585,269.502769 C238.110265,268.663956 238.883281,267.774876 239.636066,266.836026 C248.852107,270.048919 255.742448,272.853917 260.307091,275.25102 C255.07087,268.548305 250.819745,266.442551 242.764652,262.470332 C243.112734,261.929128 243.455903,261.375633 243.794211,260.809912 C244.289698,259.981357 244.778635,259.145239 245.257444,258.299717 C255.082402,259.363083 267.482595,261.848151 275.562358,260.842157 C273.092344,257.980773 258.654969,253.872311 249.107282,250.597839 C249.711162,249.17548 250.265408,247.717488 250.756624,246.216978 C259.431809,245.379331 271.422341,244.326916 279.012384,241.838411 C273.215389,239.993063 261.436799,240.148389 252.28322,240.345463 C252.333207,240.085917 252.38114,239.825056 252.426964,239.562849 C252.806825,237.389241 253.1899,235.243013 253.531873,233.115891 C262.511604,228.786357 271.807584,224.216682 267.83583,225.480697 C265.051144,226.366926 259.477133,227.501852 254.211824,228.370383 C254.537101,225.694603 254.742181,223.039733 254.735801,220.388736 C260.731706,215.896756 267.235308,210.460588 270.42633,205.875755 C268.239469,206.787418 262.809627,209.235504 254.136804,213.220015 Z" id="Combined-Shape" stroke="#000000" stroke-width="3" fill="#FFFFFF" stroke-linecap="square"></path>
                    <path d="M125.481985,177.479307 C129.058303,184.873818 132,193.120706 132,197.543142 C132,201.965578 130.110254,204.193858 126.575512,203.986775 C123.040769,203.779691 118.359941,203.010302 114.767149,199.123026 C111.174357,195.23575 109.446993,187.595376 109.048491,182.999208 C108.649989,178.403039 110.767227,168 113.210796,168 C115.654365,168 121.905666,170.084796 125.481985,177.479307 Z" id="Line-2" stroke="#000000" stroke-width="3" stroke-linecap="square"></path>
                    <path d="M187,225 C192.384251,226.130997 196.192971,227.138568 198.42616,228.022714 C201.775943,229.348932 201.28104,233.164388 203.795272,233.300602 C205.02159,233.36704 207.2832,232.741836 210.580104,231.424989 C210.467994,233.674441 210.467994,235.144602 210.580104,235.835473 C211.046751,238.711164 212.985344,244.464672 212.985344,249.659988 C212.985344,252.157745 212.746308,256.114458 211.808702,256.567081 C208.135798,258.340151 200.758739,265.389961 199.675072,269 C202.221338,268.454764 206.106756,267.709033 209.54605,266.00407 C212.985344,264.299106 215.260298,261.394282 216,258.309159 C214.660587,257.616103 213.263488,257.03541 211.808702,256.567081" id="Line-3" stroke="#000000" stroke-width="3" stroke-linecap="square"></path>
                    <path d="M211.956318,174 C214.591543,174 211.4055,165.049411 211.4055,159.002796 C211.4055,152.956182 212.214341,151 209.579117,151 C206.943893,151 204,155.772222 204,161.818836 C204,167.86545 209.321094,174 211.956318,174 Z" id="Oval" stroke="#000000" stroke-width="3" transform="translate(208.500000, 162.500000) rotate(-22.000000) translate(-208.500000, -162.500000) "></path>
                    <path d="M125.117315,204 C129.759728,204 132,198.004068 132,191.242643 C132,184.481218 128.236581,179 123.594167,179 C118.951754,179 115,185.747163 115,192.508588 C115,199.270013 120.474902,204 125.117315,204 Z" id="Oval-2" fill="#000000" transform="translate(123.500000, 191.500000) rotate(-23.000000) translate(-123.500000, -191.500000) "></path>
                    <path d="M210.823699,173 C212.73443,173 213.056358,164.763983 214.13386,161.484977 C215.211362,158.205971 217.08931,153 215.178579,153 C213.267848,153 208,157.402791 208,164.100098 C208,170.797405 208.912968,173 210.823699,173 Z" id="Oval-2-Copy" fill="#000000" transform="translate(212.000000, 163.000000) rotate(-36.000000) translate(-212.000000, -163.000000) "></path>
                    <path d="M212,233 C216.774166,231.558715 220.29886,223.416439 222,220" id="Line-5" stroke="#000000" stroke-width="3" stroke-linecap="square"></path>
                    <path d="M65.7092563,148 L48.1330849,129.391002 C30.170172,105.171999 19.7060346,89.7129611 16.7406728,83.0138884 C12.2926302,72.9652794 7.74893066,58.4567013 11.2373193,54.8877881 C14.725708,51.3188748 34.7951283,59.2023744 42.9845874,66.2260832 C51.1740465,73.249792 81.3846338,115.285744 83,123.331822" id="Line-6" stroke="#000000" stroke-width="3" stroke-linecap="square"></path>
                    <path d="M136.116221,237.088153 C153.846991,231.284755 168.80825,227.25537 181,225 C177.591532,228.795722 164.109433,234.927811 140.553705,243.396269 C155.766974,242.814974 165.815481,242.814974 170.699225,243.396269 C161.525369,246.450501 152.371974,249.465919 143.239039,252.442523 C162.48808,256.749966 173.79715,260.124965 177.16625,262.56752 C160.16224,262.86895 148.209679,262.690198 141.308567,262.031264 C148.97011,265.518291 156.138383,268.961312 162.813387,272.360326 C150.089129,270.6873 141.190073,269.028684 136.116221,267.384477 C139.698739,276.520951 142.612254,282.726125 144.856767,286 C139.461752,282.825821 133.84283,278.008993 128,271.549516" id="Line-4" stroke="#000000" stroke-width="3" stroke-linecap="square" transform="translate(154.500000, 255.500000) scale(-1, 1) translate(-154.500000, -255.500000) "></path>
                </g>
            </g>
        </g>
    </g>
</svg>